<svg width="116" height="42" viewBox="0 0 116 42" fill="none" xmlns="http://www.w3.org/2000/svg">
<rect width="116" height="42" fill="white"/>
<path d="M59.931 21.2368C59.931 19.9045 59.537 18.6021 58.7987 17.4943C58.0604 16.3865 57.011 15.523 55.7833 15.0132C54.5555 14.5033 53.2045 14.3699 51.9012 14.6298C50.5978 14.8898 49.4006 15.5313 48.4609 16.4735C47.5213 17.4156 46.8813 18.6159 46.6221 19.9226C46.3628 21.2293 46.4959 22.5838 47.0044 23.8147C47.513 25.0457 48.3742 26.0977 49.4791 26.838C50.5841 27.5782 51.8831 27.9732 53.212 27.9732C54.0944 27.9735 54.9683 27.7994 55.7836 27.461C56.5989 27.1226 57.3397 26.6264 57.9636 26.0008C58.5876 25.3752 59.0825 24.6325 59.4201 23.8151C59.7577 22.9976 59.9313 22.1215 59.931 21.2368ZM53.212 16.0023C53.6594 16.0021 54.105 16.0591 54.538 16.1717L53.719 18.1067C52.367 17.6054 51.051 17.3147 49.954 17.2906C49.897 17.2906 49.84 17.2906 49.784 17.2906C50.7324 16.4575 51.9511 15.9995 53.212 16.0023V16.0023ZM53.212 26.4704C52.7618 26.4713 52.3134 26.4137 51.878 26.2989L52.478 24.8742C52.2467 24.788 52.0133 24.6954 51.778 24.5965C51.545 24.4963 51.317 24.396 51.094 24.2877L50.494 25.7104C49.768 25.2665 49.1608 24.6519 48.7252 23.9197C48.2896 23.1875 48.0386 22.3599 47.994 21.5085L48.113 21.6298C49.03 22.5402 50.41 23.4104 52 24.0872C53.59 24.7639 55.177 25.154 56.462 25.182H56.64C55.6918 26.0154 54.473 26.4735 53.212 26.4704V26.4704ZM54.989 20.3195C55.908 20.8067 56.689 21.3541 57.246 21.9086C57.888 22.5482 58.086 23.0646 57.998 23.2741C57.91 23.4836 57.398 23.6992 56.498 23.6801C55.398 23.6561 54.011 23.3102 52.589 22.7046C51.167 22.0991 49.954 21.3371 49.172 20.5631C48.53 19.9234 48.332 19.4071 48.421 19.1986C48.51 18.99 49.021 18.7735 49.921 18.7975C50.821 18.8216 51.96 19.0632 53.132 19.4993L52.118 21.8885C52.1147 21.8928 52.1121 21.8975 52.11 21.9025C52.331 22.0088 52.559 22.1141 52.793 22.2133C53.027 22.3126 53.259 22.4048 53.493 22.4901L54.513 20.0768L55.099 18.6932L55.919 16.7582C56.2773 16.9771 56.6083 17.2379 56.905 17.5352C57.822 18.4498 58.3648 19.6749 58.427 20.9701C58.387 20.928 58.346 20.8859 58.302 20.8428C57.62 20.164 56.677 19.5053 55.577 18.9379L54.989 20.3195Z" fill="#141C32"/>
<path d="M13.225 25.7776V18.1418H10.76V16.664H17.32V18.1418H14.855V25.7776H13.225Z" fill="#141C32"/>
<path d="M19.941 25.7776V16.664H21.571V25.7776H19.941Z" fill="#141C32"/>
<path d="M24.949 25.7776V16.3632L29.592 21.9988L34.235 16.3632V25.7776H32.63V20.6132L29.592 24.3228L26.553 20.6132V25.7776H24.949Z" fill="#141C32"/>
<path d="M37.56 25.7776V16.664H43.35V18.1418H39.19V20.3124H43.09V21.7893H39.19V24.2957H43.441V25.7736L37.56 25.7776Z" fill="#141C32"/>
<path d="M63.048 23.254C63.4328 23.6459 63.8927 23.9556 64.4 24.1646C64.9073 24.3736 65.4516 24.4776 66 24.4702C67.1 24.4702 67.748 23.9599 67.748 23.3453C67.754 23.1732 67.7179 23.0022 67.6428 22.8474C67.5676 22.6925 67.4558 22.5585 67.317 22.457C67.043 22.2344 66.5097 21.9597 65.717 21.6329C64.143 20.9661 63.3 20.2473 63.3 18.9389C63.3 18.1943 63.5866 17.6061 64.16 17.1743C64.734 16.7292 65.4643 16.5069 66.351 16.5076C67.199 16.5076 67.942 16.7161 68.551 17.1352V18.7955C67.9554 18.2652 67.1825 17.9788 66.386 17.9934C65.46 17.9934 64.926 18.3734 64.926 18.9349C64.874 19.2357 65.147 19.4973 65.369 19.6938C65.5791 19.8359 65.8017 19.9584 66.034 20.0598L66.465 20.2603C66.673 20.3515 66.817 20.4037 66.882 20.4428C67.756 20.8218 68.382 21.2278 68.773 21.6589C69.164 22.09 69.36 22.6525 69.36 23.3453C69.3659 23.6998 69.2916 24.0511 69.1427 24.3727C68.9937 24.6943 68.774 24.9779 68.5 25.2021C67.926 25.6863 67.118 25.935 66.087 25.935C64.927 25.935 63.91 25.6212 63.049 25.0066L63.048 23.254Z" fill="#141C32"/>
<path d="M72.137 25.7776V16.664H75.606C76.3733 16.6621 77.1117 16.9573 77.667 17.4881C78.267 18.0376 78.567 18.7564 78.567 19.6327C78.5768 20.0296 78.5016 20.4241 78.3463 20.7894C78.1911 21.1547 77.9594 21.4823 77.667 21.7502C77.3957 22.0193 77.0739 22.2319 76.7201 22.3756C76.3664 22.5193 75.9877 22.5913 75.606 22.5873H73.768V25.7776H72.137ZM73.768 21.1095H75.528C76.258 21.1095 76.95 20.5741 76.95 19.6327C76.95 18.6913 76.258 18.1418 75.528 18.1418H73.768V21.1095Z" fill="#141C32"/>
<path d="M79.649 25.7776L84.1491 16.2198L88.6361 25.7776H86.9001L86.0921 24.013H82.179L81.3701 25.7776H79.649ZM82.792 22.6004H85.4791L84.1351 19.6327L82.792 22.6004Z" fill="#141C32"/>
<path d="M97.828 17.4621V19.2006C97.033 18.3905 96.094 17.9844 94.998 17.9844C94.5718 17.9738 94.1479 18.0507 93.7523 18.2104C93.3568 18.37 92.998 18.6091 92.698 18.9128C92.085 19.5274 91.785 20.2994 91.785 21.2278C91.785 22.1562 92.085 22.9322 92.698 23.5418C93.311 24.1514 94.081 24.4572 94.998 24.4572C96.098 24.4572 97.033 24.0561 97.828 23.241V24.9805C97.059 25.6212 96.12 25.935 94.998 25.935C93.655 25.935 92.508 25.4898 91.569 24.6005C90.63 23.7112 90.169 22.5743 90.169 21.2278C90.169 19.8813 90.639 18.7564 91.569 17.8541C92.499 16.9517 93.655 16.5076 95 16.5076C96.107 16.5076 97.046 16.8254 97.828 17.4621Z" fill="#141C32"/>
<path d="M100.958 25.7776V16.664H106.748V18.1418H102.588V20.3124H106.488V21.7893H102.588V24.2957H106.84V25.7736L100.958 25.7776Z" fill="#141C32"/>
</svg>
